<?xml version="1.0" encoding="utf-8"?>
<svg viewBox="-350 -150 1500 1500" width="390px" height="390px" style="width: 390px; height: 390px; justify-content: center; align-self: center; transform: scale(1, 1);" xmlns="http://www.w3.org/2000/svg">
  <g transform="matrix(-1.216477, 0, 0, 1.216477, 989.03656, -158.419968)" style="">
    <g id="body_Whatever" data-name="body/Whatever" transform="translate(0 459)">
      <path id="_Skin" data-name="âœ‹ Skin" d="M1102.992,305.357c10.243-5.347,20.244-11.156,30.087-17.2,6.933-4.147.8-14.593-6.314-10.818-3.635,1.931-7.256,3.88-10.89,5.8a63.788,63.788,0,0,0,7.888-8.068l-.164-.163c9.164-8.211-2.607-23.7-13.029-16.958-9.191,6.662-18.466,13.46-29.016,17.847-21.852,9.266-45.955,10.8-69.409,11.067-8.583-.645-16.781.842-25.109,2.5,3.265-13.1,11.436-22.989,15.77-35.675,3.2-12.808-15.29-21.532-21.842-9.221-1.608,3.023-3.141,6.082-4.64,9.155-14.162,12.881-37.81,11.747-52.093,25.577-8.135,7.221-12.117,17.018-13.69,26.852-1.068,6.677.592,13.371-3.445,19.285-19.519,27.608-50.361,71.246-66.024,101.629-11.09-72.2-40.7-161.5-71.292-227.514-10.116-21.113-21.689-41.743-36.881-59.639,1.722-5.968-4.356-16.562-8.221-13.3-11.9-14.534-32.927-18.3-49.837-25.521-22.827-9.761-41.766-30.049-51.076-53.109C611.8,3.964,582.356-1.614,541.517.327c-39.084-.049-68,16.668-76.529,56.454-17.325,30.2-58.231,25.2-87.66,33.2a291.549,291.549,0,0,0-62.391,22.215C292.808,91.2,213.553,179.3,206.349,201.97c4.241.822,8.456,1.812,12.633,3.017,3.72,1.076,2.158,6.694-1.594,5.8a116.349,116.349,0,0,0-14.089-2.429c-.144.452-.27.9-.364,1.344-.53-.036-1.059-.081-1.589-.117a18.909,18.909,0,0,1,3.408,2.237c2.664,2.212-.8,6.481-3.635,4.719-2.667-2-6.16-1.68-9.359-2.35-.19,6.578-23.663-.781-27.309-2.961-16.205-2.027-32.876.148-48-7.667-20.129-4.239-40.409-8.927-60.312-14.325-5.269,2.054-10.221,9.4-6.036,14.8,2.354,2.454-.672,6.462-3.636,4.718-9.941-5.851-17.629-14.985-24.147-24.825-3.068-3.1-8.514-2.429-12.636-3.714a6.6,6.6,0,0,0-.871,3.226c-17.485,2.878-5.012,21.975,3.778,27.925-4.663,3.036-4.84,8.982-4.432,13.947a6.718,6.718,0,0,0-.458,5.942c3.288,7.577,10.4,13.958,15.806,20.1,5.97,6.78,11.293,13.6,18.557,19.092,27.688,21.106,61.1,32.905,95.379,37.52,12.171,1.87,29.678,4.731,37.214,15.022-1.849,12.214-5.244,23.928-8.324,35.839-4.307,15.809-4.014,32.361-4.071,48.478a1.186,1.186,0,0,0-1.93.538c-1,6.681-1.747,13.513-5.808,19.127a162.216,162.216,0,0,0-7.26,32.542c-5.332,52-6.605,105.524,5.417,156.709a185.446,185.446,0,0,0,22.464,53.653,11.335,11.335,0,0,0,12.418,5.435c14.81,7.694,33.467,10.16,49.43,8.206C291.41,668.1,272.448,705.2,348.751,693.837c131.707-16.778,264.811,16.193,396.238-3.164,3.237,25,45.611,17.83,60.33,7.26,44.134-32.809,66.048-136.685,88.2-189.38,15.225-41.534,40.719-115.1,74.106-142.968,10.011-7.83,22.112-11.952,34.22-15.28,45.188-11.644,90.55-22.656,135.824-33.977,7.678-1.891,6.3-14.985-1.912-14.145C1124.858,303.3,1113.925,304.306,1102.992,305.357Z" transform="translate(-86.25 -22)" style="fill: rgb(255, 255, 255);"/>
      <path id="_Ink" data-name="ðŸ– Ink" d="M 769.881 678.462 C 768.219 678.446 766.643 677.718 765.554 676.462 C 724.965 674.829 685.045 673.634 646.904 672.911 C 615.113 672.3 582.166 671.991 548.978 671.991 C 512.071 671.991 473.533 672.374 434.434 673.131 C 400.173 673.796 364.27 674.758 327.724 675.991 C 322.607 676.16 317.402 676.353 312.369 676.54 L 312.328 676.54 L 312.306 676.54 C 300.127 676.992 287.533 677.459 275.144 677.628 C 274.977 677.628 274.805 677.628 274.632 677.628 C 272.042 677.621 269.457 677.383 266.909 676.918 C 264.217 676.451 261.59 675.663 259.085 674.572 C 256.742 673.59 254.633 672.125 252.895 670.272 C 251.239 668.46 250.244 666.14 250.072 663.691 L 250.053 663.366 C 248.852 663.692 247.633 663.949 246.403 664.136 C 246.184 664.17 245.963 664.187 245.741 664.187 C 245.431 664.189 245.121 664.155 244.818 664.087 L 244.572 664.021 C 241.066 665.039 237.429 665.534 233.778 665.491 C 224.01 665.491 213.618 662.591 204.449 660.036 C 202.658 659.536 200.966 659.065 199.307 658.622 L 198.202 658.33 C 192.157 656.886 186.325 654.662 180.853 651.714 C 175.417 648.667 170.641 644.57 166.803 639.661 C 163.174 635.026 160.059 630.01 157.511 624.703 C 154.953 619.361 152.829 613.823 151.158 608.141 C 148.235 598.356 146.136 587.292 144.551 573.321 C 141.976 551.689 142.108 529.82 144.942 508.221 C 143.174 490.494 144.935 472.263 146.891 455.11 C 147.932 445.943 149.08 437.494 150.401 429.28 C 151.171 424.493 152.169 419.804 153.211 415.02 C 153.349 414.388 153.475 413.755 153.611 413.084 L 153.611 413.071 C 153.87 411.771 154.139 410.436 154.485 409.129 L 154.72 408.29 C 154.418 408.329 154.113 408.349 153.808 408.349 C 152.359 408.325 150.94 407.937 149.68 407.221 C 147.806 406.178 146.353 404.517 145.569 402.521 C 144.797 400.526 144.407 398.404 144.421 396.265 C 144.221 384.283 145.533 371.951 146.807 360.025 L 146.828 359.833 C 146.919 358.978 147.01 358.125 147.101 357.274 C 148.514 344.074 150.436 331.192 152.811 318.983 L 153.447 315.724 C 155.191 306.874 157.373 296.675 161.2 287.624 C 146.915 285.196 132.963 282.657 119.33 278.334 C 112.606 276.209 106.071 273.53 99.79 270.324 C 97.436 269.957 95.118 269.388 92.861 268.624 L 92.855 268.624 C 92.165 268.413 91.455 268.194 90.755 267.992 C 86.249 266.675 81.741 265.11 77.355 263.342 C 68.265 259.779 59.53 255.369 51.265 250.172 C 44.606 245.939 38.366 241.08 32.63 235.662 C 26.897 230.244 21.767 224.221 17.33 217.699 L 16.721 216.786 C 14.244 213.061 12.125 209.11 10.391 204.986 C 8.224 199.64 7.543 195.223 8.367 191.858 C 8.94 189.388 10.552 187.285 12.79 186.092 C 9.164 182.98 6.103 179.266 3.739 175.114 C 2.564 173.082 1.615 170.928 0.909 168.69 C 0.261 166.693 -0.042 164.599 0.014 162.5 C -0.004 159.72 1.275 157.09 3.474 155.388 C 5.626 153.906 8.199 153.159 10.81 153.258 C 14.455 153.268 18.023 154.316 21.094 156.28 C 25.548 159.259 28.964 163.45 32.267 167.504 L 32.574 167.881 C 36.19 172.329 40.161 176.742 44.714 181.37 C 45.851 182.522 47.001 183.652 48.131 184.727 L 49.294 185.82 C 49.112 185.385 48.95 184.94 48.813 184.5 C 47.657 180.725 47.748 176.679 49.072 172.96 C 50.297 169.203 52.998 166.106 56.553 164.382 C 58.113 163.668 59.812 163.306 61.528 163.322 C 64.442 163.457 67.306 164.135 69.971 165.322 L 70.633 165.593 C 76.428 168.025 82.362 170.112 88.403 171.843 C 97.215 174.266 106.168 176.142 115.212 177.459 C 124.239 178.837 133.484 179.859 142.424 180.85 C 149.571 181.641 156.962 182.459 164.193 183.45 C 174.086 184.732 183.896 186.585 193.575 189 C 195.55 181.027 198.576 173.351 202.575 166.176 C 206.519 159.02 211.072 152.217 216.183 145.841 C 221.99 138.55 228.353 131.719 235.214 125.41 C 241.963 119.221 249.135 113.509 256.677 108.316 C 264.209 103.14 272.042 98.418 280.136 94.174 C 287.944 90.065 296.361 86.174 305.154 82.6 C 322.396 75.717 340.096 70.042 358.126 65.619 C 373.726 61.684 390.874 58.088 412.103 54.302 C 412.505 54.231 412.913 54.195 413.321 54.195 C 415.961 54.195 418.358 55.632 420.587 57.104 C 420.809 57.251 421.028 57.397 421.245 57.542 L 421.293 57.574 C 423.253 58.883 424.945 60.014 426.465 60.014 C 426.904 60.018 427.338 59.911 427.724 59.702 C 434.166 56.242 440.368 51.274 446.683 44.513 C 455.065 35.532 461.838 25.236 468.383 15.279 C 471.036 11.245 473.783 7.079 476.608 3.023 C 477.851 1.136 479.959 0 482.218 0 C 483.486 0.004 484.732 0.335 485.836 0.959 C 486.919 1.554 487.818 2.434 488.436 3.503 C 489.509 5.476 489.388 7.883 488.122 9.738 L 485.922 13.379 C 481.806 20.141 476.854 28.065 471.327 35.559 C 466.18 42.711 460.298 49.303 453.776 55.228 C 450.363 58.275 446.683 61.01 442.782 63.4 C 440.98 64.498 483.222 101.18 532.302 104.462 C 589.737 108.304 655.366 78.644 653.087 77.34 L 653.038 77.312 C 652.348 76.912 651.695 76.543 651.044 76.178 C 644.301 72.391 639.434 68.521 635.724 63.998 C 633.998 61.896 632.555 59.576 631.433 57.098 C 630.353 54.7 629.516 52.2 628.933 49.635 C 627.857 44.405 627.182 39.099 626.916 33.766 C 626.696 30.866 626.469 27.866 626.116 24.952 C 626.085 24.752 626.143 24.549 626.275 24.396 C 626.464 24.205 626.725 24.102 626.993 24.112 C 627.225 24.107 627.452 24.181 627.636 24.322 C 631.925 27.885 633.781 33.34 635.575 38.616 C 635.845 39.409 636.123 40.228 636.405 41.023 C 638.716 47.518 641.316 52.758 646.495 57.223 C 651.366 61.423 657.343 64.531 663.076 67.263 C 663.976 67.69 665.991 68.331 668.324 69.073 L 668.329 69.073 C 673.817 70.818 681.329 73.208 682.505 75.302 C 687.334 74.168 692.278 73.595 697.239 73.593 C 707.302 73.668 717.234 75.878 726.378 80.079 C 735.719 84.344 744.303 90.099 751.795 97.121 C 760.879 105.675 768.986 115.211 775.966 125.554 C 782.976 135.878 789.435 146.565 795.315 157.572 C 807.797 180.685 818.463 204.734 827.215 229.501 C 831.873 242.443 835.86 255.269 839.067 267.622 C 842.428 280.503 845.075 293.559 846.996 306.732 C 849.923 327.015 852.037 349.085 853.461 374.205 L 853.617 377.022 C 871.902 348.322 891.41 318.714 911.597 289.012 C 909.476 283.301 909.338 277.042 911.204 271.243 C 913.108 265.386 916.277 260.018 920.486 255.522 C 924.519 251.207 929.21 247.559 934.386 244.715 C 939.557 241.887 944.872 239.331 950.309 237.057 C 951.858 236.378 953.457 235.676 955.022 234.973 L 956.643 234.24 C 962.366 231.629 968.386 228.64 973.643 224.483 C 975.841 222.651 977.907 220.665 979.825 218.541 C 982.108 215.958 984.651 213.616 987.413 211.553 C 990.345 209.582 993.799 208.532 997.332 208.537 C 1000.2 208.454 1003.014 209.321 1005.338 211.003 C 1006.445 211.864 1007.341 212.967 1007.957 214.227 C 1008.648 215.69 1009.018 217.285 1009.042 218.903 C 1009.059 222.193 1008.55 225.464 1007.535 228.593 C 1006.552 231.73 1005.384 234.805 1004.035 237.803 C 1002.634 240.985 1000.99 244.055 999.118 246.985 C 997.244 249.911 995.178 252.71 992.934 255.363 C 992.742 255.594 992.517 255.796 992.268 255.963 L 992.094 256.072 C 998.339 257.165 1004.643 257.883 1010.974 258.222 C 1013.409 258.334 1015.874 258.39 1018.292 258.39 C 1028.785 258.414 1039.251 257.325 1049.514 255.142 C 1062.451 252.395 1074.931 247.815 1086.574 241.542 C 1088.908 240.277 1091.236 238.905 1093.487 237.579 C 1097.146 235.422 1100.93 233.192 1104.794 231.394 C 1108.648 229.527 1112.755 228.236 1116.984 227.562 C 1117.97 227.411 1119.006 227.306 1120.154 227.242 C 1120.194 227.242 1120.236 227.242 1120.277 227.242 C 1121.259 227.295 1122.156 227.816 1122.689 228.642 C 1123.202 229.332 1123.335 230.233 1123.044 231.042 C 1122.632 232.081 1122.223 233.042 1121.794 233.973 C 1119.791 238.376 1117.333 242.556 1114.458 246.446 C 1111.549 250.411 1108.191 254.027 1104.451 257.22 L 1103.874 257.702 C 1106.549 256.777 1109.164 255.741 1111.645 254.622 C 1117.055 252.186 1122.372 249.251 1127.514 246.414 C 1136.622 241.388 1146.036 236.192 1156.304 233.572 C 1156.982 233.394 1157.713 233.219 1158.604 233.022 C 1159.014 232.932 1159.433 232.886 1159.853 232.884 C 1161.617 232.849 1163.238 233.849 1164 235.44 C 1164.861 237.292 1164.58 239.475 1163.276 241.048 C 1162.729 241.748 1162.276 242.311 1161.846 242.828 C 1154.697 251.746 1146.729 259.975 1138.046 267.408 C 1135.054 269.95 1131.955 272.423 1128.837 274.759 C 1138.197 271.923 1147.964 268.418 1157.866 264.339 C 1158.411 264.108 1158.997 263.987 1159.589 263.982 C 1161.028 264.038 1162.367 264.732 1163.243 265.874 C 1164.164 266.981 1164.761 268.322 1164.966 269.748 C 1165.269 272.224 1164.879 274.735 1163.84 277.003 C 1162.758 279.309 1161.292 281.414 1159.504 283.229 C 1155.885 287.044 1151.152 290.193 1147.349 292.723 L 1147.026 292.938 C 1139.345 297.935 1131.084 301.978 1122.426 304.978 C 1106.012 310.91 1088.85 313.618 1071.244 316.087 L 1062.832 317.259 C 1054.804 318.381 1046.257 319.612 1037.775 321.225 C 1029.5 322.736 1021.331 324.783 1013.322 327.354 C 1005.411 329.883 997.802 333.275 990.633 337.468 C 987.033 339.601 983.584 341.98 980.312 344.589 C 976.947 347.281 973.79 350.222 970.867 353.389 C 964.25 360.715 958.455 368.744 953.585 377.332 C 948.509 386.049 944.117 395.156 940.128 403.698 C 932.937 419.098 926.013 435.824 917.678 457.929 C 912.67 471.193 908.04 484.85 903.561 498.057 C 901.645 503.707 899.661 509.549 897.678 515.288 C 891.578 532.918 884.239 550.425 877.145 567.355 L 876 570.068 C 868.526 588.207 859.957 605.875 850.342 622.976 C 845.402 631.659 840.192 640.018 834.855 647.82 C 829.223 656.053 823.24 663.975 817.07 671.368 C 816.291 672.411 815.08 673.043 813.779 673.085 C 812.866 673.069 811.98 672.766 811.248 672.22 C 810.466 671.653 809.836 670.901 809.415 670.031 C 808.98 669.157 808.782 668.184 808.839 667.21 C 808.913 666.139 809.311 665.117 809.981 664.278 C 816.615 655.687 822.79 646.752 828.481 637.51 C 833.934 628.686 839.292 619.099 844.404 609.016 C 849.12 599.716 853.634 590.022 858.204 579.383 C 862.223 570.029 866.192 560.156 870.338 549.199 C 874.283 538.779 877.923 528.041 881.444 517.656 L 881.444 517.646 C 884.125 509.737 886.897 501.559 889.785 493.579 L 893.76 482.613 C 898.807 468.713 904.268 453.791 910.005 438.89 C 916.993 420.492 924.914 402.462 933.735 384.869 L 934.678 383.022 C 938.993 374.467 943.858 366.202 949.243 358.277 C 954.609 350.349 960.89 343.079 967.955 336.619 C 971.108 333.785 974.444 331.16 977.94 328.762 C 981.366 326.418 984.928 324.278 988.607 322.356 C 995.942 318.565 1003.618 315.475 1011.535 313.13 C 1027.506 308.279 1044.541 305.785 1060.62 303.648 L 1071 302.279 C 1084.45 300.492 1098.73 298.432 1112.458 294.658 C 1120.297 292.607 1127.888 289.703 1135.095 286 C 1137.963 284.497 1140.75 282.845 1143.445 281.051 C 1135.727 283.312 1127.897 285.168 1119.985 286.61 C 1116.172 287.31 1112.275 287.848 1108.405 288.221 C 1103.111 288.745 1097.653 289 1091.72 289 C 1087.635 289 1083.335 288.879 1078.575 288.631 C 1078.14 288.589 1077.803 288.232 1077.787 287.795 C 1077.746 287.437 1077.998 287.111 1078.356 287.062 C 1084.662 285.94 1091.383 284.503 1099.507 282.537 L 1101.616 282.021 C 1101.697 280.697 1102.21 279.436 1103.077 278.432 C 1105.398 275.607 1109.101 273.698 1112.677 271.852 C 1114.443 270.982 1116.163 270.024 1117.833 268.981 C 1122.667 265.834 1127.33 262.433 1131.803 258.791 C 1135.777 255.548 1139.737 252.006 1143.573 248.262 L 1143.678 248.162 L 1143.626 248.213 L 1143.573 248.264 C 1139.882 249.964 1136.198 251.88 1132.636 253.728 C 1126.348 257.18 1119.824 260.183 1113.112 262.715 C 1104.643 265.732 1095.82 267.64 1086.862 268.394 L 1086.308 268.438 L 1085.753 268.474 C 1083.034 268.674 1080.272 268.787 1077.6 268.9 C 1071.089 269.176 1064.358 269.462 1057.843 270.894 C 1057.77 270.911 1057.695 270.92 1057.62 270.92 C 1057.261 270.929 1056.949 270.674 1056.887 270.32 C 1056.804 269.914 1057.027 269.508 1057.413 269.359 C 1064.584 266.376 1071.842 265.059 1079.527 263.659 L 1079.593 263.647 C 1080.458 263.49 1081.352 263.327 1082.233 263.165 C 1082.445 262.433 1082.973 261.835 1083.673 261.535 L 1085.832 260.504 C 1092.104 257.492 1098.182 254.368 1103.603 249.285 C 1108.321 244.871 1112.245 239.679 1115.203 233.935 C 1107.694 235.582 1100.711 239.835 1093.958 243.946 C 1090.185 246.338 1086.288 248.528 1082.282 250.505 C 1070.584 256.001 1058.21 259.926 1045.482 262.176 L 1044.033 262.424 C 1035.497 263.865 1026.856 264.601 1018.199 264.624 C 1009.807 264.676 1001.434 263.833 993.221 262.108 C 985.208 260.45 977.503 257.552 970.382 253.521 C 970.133 253.395 970.007 253.11 970.082 252.841 C 970.172 252.529 970.457 252.313 970.782 252.311 C 970.821 252.311 970.859 252.314 970.897 252.32 C 974.487 252.908 978.112 253.571 981.617 254.211 L 981.637 254.211 L 981.664 254.216 C 984.036 254.649 986.488 255.097 988.898 255.516 C 988.296 254.969 987.902 254.231 987.783 253.427 C 987.666 252.539 987.95 251.644 988.558 250.986 C 993.958 244.87 998.144 237.781 1000.892 230.098 L 1001.411 228.592 L 1001.58 228.11 L 1001.589 228.084 C 1002.344 226.103 1002.932 224.063 1003.346 221.984 C 1003.765 219.484 1003.526 217.615 1002.617 216.257 C 1001.386 214.655 999.432 213.778 997.417 213.924 C 995.829 213.935 994.26 214.269 992.805 214.907 C 989.071 216.591 986.083 219.868 983.193 223.037 C 981.495 224.997 979.654 226.829 977.685 228.517 C 971.708 233.35 964.771 236.812 959.395 239.287 L 958.032 239.905 C 956.269 240.698 954.456 241.485 952.703 242.245 C 943.296 246.327 933.57 250.545 926.184 258.006 C 923.771 260.408 921.646 263.084 919.854 265.98 C 918.05 268.872 916.761 272.054 916.044 275.386 C 915.386 278.439 915.455 281.603 916.244 284.625 C 916.436 285.285 916.67 285.932 916.944 286.562 C 917.522 287.962 918.021 289.179 917.475 290.862 C 916.783 292.972 914.868 295.402 913.175 297.546 C 912.354 298.588 911.575 299.571 910.981 300.462 C 908.817 303.669 906.633 306.929 904.521 310.082 C 900.898 315.504 897.23 321.03 893.683 326.373 L 893.617 326.473 L 891.691 329.373 C 883.506 341.718 875.207 354.409 866.321 368.173 C 863.592 372.402 860.849 376.673 858.167 380.867 L 854.111 387.224 C 853.529 388.132 852.947 389.041 852.366 389.952 L 851.966 390.575 L 851.647 391.075 C 851.047 392.016 850.489 392.893 849.989 393.682 L 848.31 396.322 C 848.444 396.843 848.426 397.391 848.26 397.902 C 847.681 399.54 846.53 400.914 845.019 401.771 L 844.76 401.923 C 831.603 422.723 818.36 443.942 805.56 464.466 L 805.46 464.629 C 797.524 477.348 789.317 490.501 781.216 503.415 C 779.951 514.967 778.934 525.1 778.106 534.393 C 775.863 559.486 774.561 582.478 774.126 604.683 C 773.966 612.977 774.414 621.436 774.848 629.617 L 774.848 629.656 C 775.007 632.663 775.172 635.773 775.304 638.824 C 775.548 644.324 775.883 649.783 776.304 655.06 L 776.62 658.894 C 777.047 664.22 777.273 669.414 775.387 674.415 C 774.946 675.622 774.154 676.669 773.113 677.423 C 772.17 678.097 771.04 678.46 769.881 678.462 Z M 177.329 286.917 C 181.159 287.019 184.909 288.038 188.265 289.888 C 191.242 291.542 193.796 293.863 195.725 296.669 C 196.844 297.68 197.597 299.034 197.865 300.518 C 198.826 302.734 199.469 305.074 199.775 307.469 C 199.984 308.644 199.67 309.852 198.915 310.777 C 199.851 325.149 198.659 340.459 195.27 357.583 C 192.032 373.944 187.21 389.834 182.921 403.22 L 181.974 406.162 L 181.365 408.027 C 179.465 413.866 177.481 419.775 175.565 425.489 L 175.565 425.501 C 171.314 438.183 166.917 451.301 163.133 464.344 C 159.256 477.373 156.189 490.629 153.95 504.037 C 150.626 524.774 150.35 547.303 153.119 570.997 L 153.302 572.523 C 154.48 583.404 156.605 594.161 159.653 604.672 C 161.223 609.937 163.202 615.071 165.57 620.028 C 167.898 624.898 170.748 629.502 174.07 633.757 C 177.147 637.715 180.966 641.036 185.314 643.532 C 189.681 645.927 194.342 647.744 199.178 648.937 L 199.74 649.087 C 202.328 649.768 204.992 650.544 207.568 651.295 L 207.581 651.295 C 214.332 653.262 221.313 655.295 228.231 656.053 C 229.284 656.167 230.342 656.225 231.401 656.225 C 238.253 656.225 244.287 653.864 250.674 651.364 C 251.235 651.145 251.932 650.872 252.601 650.613 L 252.611 650.603 C 260.38 643.727 266.693 635.003 271.911 623.927 C 275.967 615.316 279.326 605.467 282.802 591.993 C 286.423 577.872 289.118 563.53 290.869 549.058 C 292.601 534.648 293.542 520.153 293.689 505.64 C 294.001 478.891 291.922 450.44 287.333 418.664 C 283.033 388.871 277.118 358.848 271.394 329.814 L 271.213 328.894 C 270.336 324.447 269.424 319.928 268.542 315.558 L 268.542 315.538 L 268.542 315.532 C 266.468 305.258 264.323 294.632 262.479 284.144 L 260.918 275.344 C 260.147 270.97 259.258 265.802 258.51 260.638 C 257.594 254.326 257.293 248.229 256.975 241.775 L 256.931 240.875 C 248.675 227.476 237.192 216.36 223.531 208.544 C 213.915 203.039 203.603 198.852 192.871 196.094 C 175.885 191.516 157.778 189.651 140.271 187.847 C 126.5 186.428 112.262 184.962 98.771 182.183 C 88.612 180.019 78.653 177.004 69 173.17 L 67.672 172.653 C 65.851 171.857 63.903 171.389 61.919 171.269 C 59.337 171.269 57.539 172.559 56.419 175.213 C 55.663 176.986 55.448 178.943 55.803 180.838 C 56.175 182.721 56.978 184.493 58.149 186.013 C 60.681 189.377 64.528 192.246 69.911 194.784 C 74.468 196.813 79.156 198.535 83.943 199.939 L 84.429 200.093 C 89.722 201.769 95.116 203.105 100.579 204.093 C 102.233 204.393 103.909 204.628 105.531 204.855 C 109.349 205.254 113.114 206.062 116.76 207.263 C 117.816 207.681 118.487 208.729 118.424 209.863 C 118.385 210.813 117.694 211.609 116.76 211.783 C 114.656 212.264 112.503 212.499 110.344 212.483 C 105.853 212.331 101.386 211.75 97.006 210.746 L 96.84 210.713 C 89.581 209.273 82.448 207.257 75.51 204.683 C 74.01 204.13 72.752 203.654 71.556 203.183 L 70.54 202.783 C 71.508 203.483 72.54 204.225 73.7 205.044 C 73.822 205.137 73.871 205.299 73.821 205.444 C 73.79 205.568 73.68 205.657 73.552 205.661 C 73.514 205.661 73.477 205.654 73.441 205.641 C 65.21 202.527 57.425 198.344 50.285 193.2 C 43.132 188.082 36.581 182.171 30.757 175.58 L 30.185 174.928 C 29.567 174.219 28.839 173.306 27.997 172.249 C 25.767 169.319 23.322 166.558 20.683 163.989 C 17.4 160.954 14.552 159.478 11.973 159.478 C 10.983 159.477 10.008 159.71 9.125 160.157 C 8.024 160.654 7.227 161.648 6.98 162.83 C 6.774 164.357 7.002 165.912 7.638 167.316 C 8.395 169.17 9.337 170.943 10.45 172.608 C 12.759 176.035 15.263 179.326 17.95 182.466 C 18.31 182.9 18.68 183.347 19.003 183.742 L 19.552 184.42 C 22.192 184.564 24.775 185.247 27.141 186.428 C 29.515 187.585 31.817 188.884 34.035 190.318 L 34.503 190.608 C 42.098 195.235 49.958 199.413 58.043 203.118 C 65.423 206.587 73.143 209.635 80.601 212.582 C 89.338 216.033 98.373 219.602 106.922 223.868 C 106.995 223.898 107.035 223.978 107.016 224.055 C 106.989 224.151 106.902 224.219 106.802 224.221 L 106.772 224.221 C 96.654 222.548 86.683 220.083 76.951 216.851 L 76.516 216.715 L 76.081 216.57 C 70.353 214.689 64.462 212.508 58.07 209.9 C 51.497 207.231 45.081 204.193 38.851 200.8 C 37.182 199.889 35.487 198.779 33.693 197.6 C 29.428 194.809 25.017 191.923 20.411 191.345 C 20.015 191.293 19.616 191.266 19.217 191.264 C 18.987 191.264 18.763 191.274 18.551 191.294 C 17.269 191.293 16.086 191.98 15.451 193.094 C 13.351 197.069 18.328 206.28 19.351 208.086 C 22.786 214.18 26.921 219.851 31.671 224.986 C 41.398 235.331 52.887 243.863 65.601 250.186 C 69.62 252.237 73.938 254.174 78.801 256.106 C 78.049 255.441 77.301 254.747 76.741 254.216 C 74.041 251.668 71.532 248.923 69.236 246.006 C 66.938 243.089 64.89 239.983 63.116 236.721 L 62.191 234.961 C 60.717 232.106 59.157 228.769 58.769 225.661 C 58.535 224.143 58.699 222.59 59.245 221.154 C 59.914 219.613 61.075 218.337 62.545 217.525 C 64.449 216.428 66.617 215.87 68.814 215.913 C 71.223 215.964 73.608 216.393 75.884 217.184 C 76.126 217.259 76.371 217.343 76.608 217.424 L 76.754 217.474 C 78.445 218.067 80.293 218.832 82.403 219.814 C 87.773 222.457 92.925 225.521 97.81 228.978 C 99.623 230.191 101.495 231.443 103.363 232.635 C 106.948 234.946 110.734 236.928 114.675 238.557 C 118.61 240.162 122.686 241.395 126.851 242.24 L 127.664 242.404 C 128.49 242.567 129.33 242.726 130.142 242.879 C 137.505 244.27 145.117 245.708 150.195 251.694 C 150.84 252.507 150.966 253.615 150.521 254.552 C 150.208 255.313 149.472 255.816 148.649 255.831 C 148.382 255.828 148.117 255.782 147.865 255.694 C 142.389 253.847 136.718 252.484 131.234 251.167 C 126.175 249.952 120.943 248.695 115.934 247.067 C 110.85 245.482 105.966 243.316 101.378 240.613 C 98.878 239.105 96.388 237.475 93.978 235.899 C 90.678 233.735 87.26 231.499 83.748 229.536 C 80.557 227.689 77.175 226.195 73.661 225.08 L 71.726 224.509 C 70.917 224.242 70.076 224.085 69.226 224.042 C 68.922 224.036 68.62 224.082 68.332 224.177 C 67.887 224.277 67.501 224.55 67.257 224.935 C 67.026 225.411 67.244 226.035 67.519 226.828 L 67.525 226.845 C 67.578 226.998 67.633 227.155 67.688 227.321 L 67.741 227.485 C 72.514 242.247 86.913 253.325 95.071 258.615 C 97.518 260.209 100.149 261.753 102.891 263.206 C 110.65 267.247 118.75 270.595 127.097 273.212 C 135.428 275.912 144.097 278.181 152.482 280.372 L 152.527 280.384 C 155.251 281.096 158.068 281.832 160.827 282.572 C 160.939 282.603 172.327 285.786 176.058 286.966 C 176.466 286.934 176.894 286.917 177.329 286.917 Z M 836.255 404.568 C 836.055 404.615 835.855 404.668 835.663 404.725 L 835.656 404.725 L 835.615 404.737 C 831.615 405.859 827.515 406.875 823.554 407.858 C 822.016 408.24 820.272 408.672 818.594 409.098 C 809.332 411.427 799.462 414.198 790.044 418.617 C 788.383 439.585 785.986 460.843 783.669 481.401 L 783.669 481.407 C 783.339 484.334 782.969 487.652 782.602 490.893 L 782.065 495.708 C 786.636 487.227 790.827 479.759 794.876 472.878 C 808.2 450.216 822.118 427.233 836.255 404.568 Z M 158.164 406.958 C 158.13 409.027 157.941 411.091 157.599 413.132 C 157.479 413.978 157.366 414.772 157.274 415.567 C 157.027 417.693 156.799 419.858 156.574 421.952 L 156.574 421.976 C 156.331 424.289 156.074 426.676 155.801 429.027 C 154.631 438.778 153.758 447.627 153.132 456.076 C 152.692 461.976 152.411 467.901 152.172 473.427 C 156.936 455.62 163.096 437.864 169.052 420.692 L 169.077 420.621 C 170.2 417.384 171.361 414.037 172.493 410.746 C 171.252 410.59 170.024 410.338 168.821 409.995 L 166.702 409.424 L 166.277 409.316 L 166.271 409.316 C 164.723 408.921 161.093 408 158.164 406.958 Z M 1124.628 277.836 L 1124.175 278.157 L 1124.628 277.836 Z M 1127.589 275.688 C 1127.308 275.895 1127.027 276.102 1126.746 276.308 C 1127.021 276.107 1127.302 275.901 1127.589 275.688 Z M 849.835 393.938 L 849.913 393.815 L 849.993 393.69 L 851.651 391.083 L 852.2 390.222 L 852.368 389.958 L 854.113 387.23 L 854.154 388.18 C 854.269 389.602 853.846 391.015 852.969 392.14 C 852.165 393.085 851.057 393.721 849.836 393.94 L 849.835 393.938 Z M 232.469 242.118 C 229.677 242.118 226.645 240.297 223.713 238.536 C 222.226 237.58 220.665 236.744 219.045 236.036 C 207.688 231.566 195.307 230.369 183.304 232.578 C 179.388 233.294 175.549 234.375 171.835 235.808 C 171.775 235.832 171.711 235.845 171.646 235.846 C 171.398 235.828 171.193 235.646 171.146 235.401 C 171.074 235.164 171.176 234.909 171.392 234.787 C 175.81 232.373 180.504 230.501 185.371 229.211 C 190.214 227.935 195.2 227.287 200.208 227.283 C 201.903 227.283 203.62 227.359 205.308 227.509 C 211.27 228.002 217.13 229.349 222.708 231.509 L 223.246 231.72 L 224.146 232.063 C 226.346 232.829 228.474 233.789 230.503 234.934 C 232.81 236.334 234.203 237.901 234.759 239.719 C 234.922 240.217 234.843 240.762 234.546 241.193 C 234.175 241.719 233.588 242.052 232.946 242.1 C 232.8 242.112 232.632 242.118 232.469 242.118 Z" transform="translate(-89 5.251)"/>
    </g>
    <g transform="translate(225 0)">
      <g>
        <g>
          <path id="_Skin" data-name="âœ‹ Skin" d="M340.529,155c-2.153-18.915.633-58.451.82-60.853,1.18-15.185-5.935-75.148-19.385-69.623C299.4,6.666,269.351,2.722,241.251.838,182.883-3.076,120.791,5.909,75.72,45.189c-22.289,20.4-43.988,50.068-42.244,80.96C13.226,155.431-15.324,195.6,9.908,229.831c8.577,10.937,22.208,15.01,32.982,23.293,21.672,17.48,35.268,42.566,57.145,59.942,57.96,52.083,156.377,62.963,213.323,3.723,44.035-42.9,36.915-107.09,29.169-161.786C337.321,118.23,344.728,191.9,340.529,155Z" transform="translate(65.001 149)" style="fill: rgb(255, 255, 255);"/>
          <path id="_Ink" data-name="ðŸ– Ink" d="M250.311,443.271a134.042,134.042,0,0,1-19.031-1.4,105.442,105.442,0,0,1-21.491-5.2,40.754,40.754,0,0,1-10.072-5.32,45.226,45.226,0,0,1-8.2-7.871,6.294,6.294,0,0,1-.675-6.317,3.866,3.866,0,0,1,3.632-2.362,5.178,5.178,0,0,1,.623.039,118.17,118.17,0,0,1,21.024,4.124l1,.317a104.128,104.128,0,0,0,21.541,4.62c3.694.358,7.44.539,11.135.539a110.436,110.436,0,0,0,33.375-5.089,96.9,96.9,0,0,0,16.843-7.179,103.553,103.553,0,0,0,15.255-10.132,108.268,108.268,0,0,0,24.252-27.3c7.019-11.267,11.672-24.011,14.225-38.96,2.453-14.362,2.683-29.15,2.584-41.72-.228-29.893-1.2-61.166-2.89-92.951l-.28-5.159c-.715-13.089-1.64-30.351-2.449-47.81-.269-5.848-.654-10.624-1.211-15.03a39.576,39.576,0,0,1-14.309-13.79,141.029,141.029,0,0,1-20.441,6.43,122.385,122.385,0,0,1-29.191,3.585,115.192,115.192,0,0,1-17.182-1.283c-4.14,1.71-8.423,3.236-12.73,4.536-1.2.53-2.372,1.042-3.5,1.523a212.419,212.419,0,0,1-31.93,10.98l-2.7.673a110.358,110.358,0,0,1-18.2,3.267,26.538,26.538,0,0,1-3.291,1.01,53.5,53.5,0,0,1-12.614,1.5c-1.507,0-3.032-.064-4.535-.189a8.47,8.47,0,0,1-6.809-4.393,6.954,6.954,0,0,1-.8-3.361,7.468,7.468,0,0,1,1.063-3.656c2.223-3.814,4.515-7.7,6.81-11.55a214.565,214.565,0,0,1-24.5,8.419c-7.393,2.082-15.461,4.046-25.391,6.18-2.254.481-4.55.941-6.77,1.387l-.008,0-.008,0c-2.255.453-4.587.921-6.873,1.409-.724.154-1.531.291-2.386.436-3.024.512-6.445,1.092-8.505,2.754-2.272,1.824-3.263,5.465-4.138,8.678-.248.912-.483,1.774-.732,2.532-1.555,4.676-2.889,9.014-4.08,13.26A275.4,275.4,0,0,0,89.65,200.5a259.542,259.542,0,0,0-3.231,27.6c-.243,3.81-.343,7.693-.44,11.448-.138,5.351-.281,10.884-.839,16.292a6.422,6.422,0,0,1-1.929,4.023,5.5,5.5,0,0,1-3.775,1.528,5.9,5.9,0,0,1-3.916-1.571c-.437-.385-.9-.8-1.364-1.213l-.676-.617a68.99,68.99,0,0,1-9.169-9.76c-.47-.646-.931-1.335-1.371-2.05a.328.328,0,0,1-.2-.069l-.734-.553c-7.713-5.742-14.351-8.653-19.73-8.653a11.913,11.913,0,0,0-9.756,4.785c-2.571,3.258-3.86,7.467-4.867,11.156l-1.874,7a121.649,121.649,0,0,0-3.02,13.849,53.032,53.032,0,0,0-.04,16.26,29.684,29.684,0,0,0,6.5,14.7,18.387,18.387,0,0,0,11.279,6.39,14.147,14.147,0,0,0,1.947.126,34.415,34.415,0,0,0,4.475-.394l.027,0q.456-.06.913-.119a15,15,0,0,1,1.871-.106c.661,0,1.33.031,1.976.061h.005c.651.03,1.324.061,1.991.061.562,0,1.064-.022,1.537-.067.153-.015.305-.023.453-.023a3.964,3.964,0,0,1,3.448,1.984,5.721,5.721,0,0,1,.308,5.369,18.167,18.167,0,0,1-2.81,4.15,32.426,32.426,0,0,1,2.471,2.38,12.33,12.33,0,0,1,6.009,4.49,10.188,10.188,0,0,1,2.04,5.56c.127.446.245.923.37,1.5l2.146,3.481c.526.852.988,1.59,1.414,2.258A108.707,108.707,0,0,0,90.14,364.5c2.683,2.443,5.5,4.83,8.219,7.139a183.861,183.861,0,0,1,13.711,12.452l.8.841a52.5,52.5,0,0,1,8.591,11.12c2.445,4.623,3.088,9.006,1.966,13.4a4.689,4.689,0,0,1-4.367,3.27,3.4,3.4,0,0,1-2.043-.66c-4.383-3.253-7.526-7.73-10.565-12.06a76.126,76.126,0,0,0-6.675-8.6c-3.244-3.446-6.722-6.77-10.086-9.984l0,0c-3.272-3.126-6.655-6.359-9.821-9.7A78.044,78.044,0,0,1,65.4,350.085a11.648,11.648,0,0,1-8.016,3.277,10.979,10.979,0,0,1-6.052-1.861,12.382,12.382,0,0,1-4.223-4.766,37.879,37.879,0,0,1-4.271,1.62,8.617,8.617,0,0,1-2.517.393,7.433,7.433,0,0,1-6.3-3.59,9.713,9.713,0,0,1-1.478-4.405,9.444,9.444,0,0,1,.8-4.738,30.273,30.273,0,0,1,5.809-8.68,36.826,36.826,0,0,1-19.821-9.63,40.67,40.67,0,0,1-11.188-21.54,60.016,60.016,0,0,1-1.1-12.283A77.3,77.3,0,0,1,8.19,271.595a121.654,121.654,0,0,1,7.25-25.11c.627-1.532,1.231-2.9,1.849-4.171a1.3,1.3,0,0,1-.99-.48c-.755-1.031-1.576-2.011-2.37-2.958a28.945,28.945,0,0,1-4.17-5.911c-.332-.682-.678-1.378-1.013-2.051a76.048,76.048,0,0,1-3.366-7.419c-2.615-7.059-3.752-14.963-4.45-21.06a158.58,158.58,0,0,1,1.18-42.75,170.791,170.791,0,0,1,9.426-35.324A173.628,173.628,0,0,1,28.118,91.949a11.606,11.606,0,0,1-2.06-1.38l-.319-.278-.518-.468a8.553,8.553,0,0,1-2.716-6.22,9.838,9.838,0,0,1,2.716-7.1l1.093-1.1a28.988,28.988,0,0,1,4.812-3.961c.323-.217.662-.426,1.008-.623a9.567,9.567,0,0,1-.76-7.479,9.927,9.927,0,0,1,5-6.127,17.589,17.589,0,0,1,8.3-1.832,29.707,29.707,0,0,1,12.379,2.823A160.043,160.043,0,0,1,89.509,35.715,310.548,310.548,0,0,1,133.8,17.02a382.367,382.367,0,0,1,46.481-12.4A211.134,211.134,0,0,1,222.145,0c1.919,0,3.842.035,5.715.1l1.229.048a140.719,140.719,0,0,1,19.4,1.822c7.586,1.375,13.556,3.564,18.249,6.693a2.286,2.286,0,0,1,1.6-.688,1.954,1.954,0,0,1,.849.193c11.52,5.5,24.119,9.59,36.3,13.548l2.9.942A177.356,177.356,0,0,0,348.6,30.835a8.341,8.341,0,0,1,3.992,1.438,8.081,8.081,0,0,1,2.732,3.1,6.289,6.289,0,0,1-.441,6.414c-.8,1.227-1.569,2.449-2.279,3.586l1.134-.119h.006c.861-.091,1.752-.185,2.627-.273.18-.018.364-.027.547-.027a7.369,7.369,0,0,1,5.222,2.5A7.73,7.73,0,0,1,364.386,53a74.571,74.571,0,0,1-.83,7.5h.03l.258,0a11.147,11.147,0,0,1,4.363.845c3.408,1.44,5.489,4.14,6.361,8.256.731,3.449.494,7.342.19,11.035-.869,10.526-4.908,20.378-11.082,27.031a42.951,42.951,0,0,1,6.4,8.552,46.562,46.562,0,0,1,4.236,10.179,48.059,48.059,0,0,1,1.96,16.681l-.134,1.673c-.546,6.379-1.641,12.871-5.917,17.147a9.3,9.3,0,0,1-6.693,2.856c-.31,0-.626-.016-.937-.046,1.6,14.077,2.642,28.492,3.57,42.05l.451,6.7c1.244,18.817,2.078,34.286,2.625,48.682.67,17.642.9,33.579.7,48.722a208.31,208.31,0,0,1-1.452,22.5,155.263,155.263,0,0,1-4.208,21.8,124.627,124.627,0,0,1-7.62,20.734,111.491,111.491,0,0,1-11.689,19.3,125.614,125.614,0,0,1-14.016,15.635,123.478,123.478,0,0,1-16.39,13.019,119.108,119.108,0,0,1-18.372,9.994A114.071,114.071,0,0,1,276.23,440.4,116.407,116.407,0,0,1,250.311,443.271ZM63,290.8l-.165,0a10.766,10.766,0,0,1-6.9-2.776,34.718,34.718,0,0,1-5-5.842c-.505-.685-1.027-1.392-1.553-2.072a6.867,6.867,0,0,1-1.67,2.04l-.46.36a8.407,8.407,0,0,1-5.027,2.036c-.092,0-.184,0-.273-.006a9.849,9.849,0,0,1-4.12-1.111,7.465,7.465,0,0,1-3.4-3.97,8.549,8.549,0,0,1,3.056-10.16l-.6-.413a12.088,12.088,0,0,1-3.389-3.245l-.207-.331h.08a3.241,3.241,0,0,1,1.861-4.78,9.719,9.719,0,0,1,3.016-.448c4.238,0,8.953,2.193,12.743,3.954.38.177.772.359,1.152.533,6.036,2.77,11.242,6.957,15.97,11.07,2.147,1.874,3,5.1,2.28,8.63l-.036.178c-.048.242-.1.491-.155.742a6.838,6.838,0,0,1-2.672,3.981A7.7,7.7,0,0,1,63,290.8Z" transform="translate(48 65.001)"/>
        </g>
      </g>
      <g transform="translate(159 186)">
        <g>
          <path d="M158.63 0.473197L157.193 0.179116C155.503 -0.15929 153.804 -0.0161244 152.311 0.591153C150.847 1.18684 149.572 2.2242 148.68 3.72083C147.495 5.71373 147.337 7.38618 147.887 9.59525C148.311 11.3022 149.242 12.5864 150.46 13.5139C151.744 14.4911 153.37 15.0612 155.06 15.2595C162.854 16.175 170.529 17.8896 177.992 20.3235C181.488 21.4643 184.788 23.0096 188.058 24.6132L190.877 26.002C193.477 27.2735 196.163 28.499 199.557 29.3885C199.824 29.4584 200.087 29.5243 200.349 29.5865C201.29 29.2909 201.449 28.9329 201.649 28.6733L201.73 28.5721C201.972 28.2679 202.271 27.8025 201.988 25.6306C194.583 10.2711 174.267 3.74181 158.63 0.473197ZM56.5878 4.83023L58.4652 4.50163C64.273 3.49719 71.4943 2.53203 75.6028 7.20123C77.7818 9.67723 78.5318 14.2792 75.6028 16.6492C71.7671 19.7539 67.6298 19.6513 63.2182 19.5419C61.7043 19.5044 60.1582 19.466 58.5808 19.5562C53.4928 19.8482 48.6028 20.6902 43.7018 22.0912C32.9498 25.1642 24.1888 30.7742 15.0058 36.9342C13.8008 37.7422 12.5708 36.2012 13.1458 35.0742C18.4468 24.6912 28.7198 16.1622 39.0098 10.9632C44.5018 8.18823 50.5118 5.88623 56.5878 4.83023ZM196.563 63.3616C196.822 63.4576 197.083 63.1656 197.007 62.9176C193.833 52.5916 181.876 48.2446 171.841 49.1056C165.631 49.6386 159.923 51.9096 155.215 56.0556C150.725 60.0106 147.228 67.4946 151.292 72.9666C155.471 78.5926 164.049 76.7736 164.538 69.3796C164.854 64.5846 173.105 61.6256 177.285 60.8876C183.776 59.7426 190.491 61.1106 196.563 63.3616ZM77.2793 76.0241C74.2413 77.7981 70.9943 76.9381 68.4063 74.8791C64.9283 72.1131 63.2743 67.6701 59.4543 65.1561C56.2223 63.0281 51.8903 62.9161 48.1743 63.5311C39.4363 64.9771 32.5683 70.6161 24.5873 73.9101C23.4683 74.3721 22.8133 72.9371 23.1893 72.0921C28.0233 61.2281 38.1163 51.5381 50.1223 49.5971C62.6773 47.5671 76.2603 55.8361 80.6433 67.7551C81.7493 70.7621 79.9123 74.4861 77.2793 76.0241ZM216.052 122.946C213.952 114.957 208.262 107.46 204.094 100.435C201.732 96.4536 199.369 92.4716 197.007 88.4906C194.97 85.0576 193.414 81.3136 189.725 79.4706C187.572 78.3956 185.091 79.7096 184.999 82.1826C184.941 83.7376 185.268 85.2916 185.824 86.8276C184.986 90.0746 184.761 93.5916 184.108 96.8296C182.998 102.333 181.683 108.056 181.552 113.691C181.302 124.456 185.702 138.238 197.553 140.884C208.91 143.42 219.156 134.754 216.052 122.946ZM135.748 119.039C143.872 107.66 132.366 96.9569 124.814 92.3669C122.836 90.9469 124.406 86.2431 128.634 86.9701C167.031 93.5671 147.136 159.708 98.1119 123.413C92.2754 118.704 99.3434 108.334 105.634 112.366C105.953 112.611 106.288 112.869 106.636 113.139C113.704 118.603 126.636 128.601 135.748 119.039ZM32.3439 92.3756C34.2569 91.3636 36.0459 92.6736 36.2939 94.6416C36.5753 96.8695 36.0347 99.1543 35.4909 101.453C35.0703 103.231 34.6477 105.017 34.6019 106.792C34.547 108.908 34.6306 111.023 34.7142 113.137C34.8026 115.372 34.8909 117.606 34.8159 119.841C34.5609 127.44 32.2909 135.069 27.9009 141.327C22.6609 148.796 8.83991 156.953 2.24391 146.141C-2.49909 138.367 1.22891 127.029 4.68091 119.528C7.38792 113.648 11.3249 108.211 15.7349 103.489C15.9286 103.281 16.1363 103.057 16.3568 102.818C19.4778 99.444 25.1518 93.3096 29.5809 93.9746C29.7629 94.0016 29.8449 94.2206 29.8099 94.3786C29.7779 94.5176 29.7249 94.6406 29.6819 94.7726C30.3679 93.7956 31.2309 92.9636 32.3439 92.3756ZM206.394 132.195C202.8 134.866 197.426 133.817 194.333 130.986C187.025 124.298 187.944 112.816 189.241 103.975C189.57 101.729 190.279 98.6866 190.753 95.5246C191.54 96.6946 192.299 97.8286 192.941 98.9106C196.486 104.884 200.055 110.839 203.679 116.765C203.903 117.132 204.154 117.529 204.42 117.95C207.053 122.123 211.169 128.647 206.394 132.195ZM16.3959 142.73C21.7579 139.587 24.9209 132.88 26.4229 127.112C27.6355 122.454 27.4572 117.746 27.2781 113.018C27.2098 111.214 27.1414 109.408 27.1499 107.6C27.1649 104.255 27.2259 99.8406 28.7329 96.4586C27.8919 97.4616 26.7489 98.2636 25.7809 99.2446C23.7219 101.331 21.6759 103.425 19.8299 105.706C16.4649 109.863 13.6869 114.508 11.4839 119.376C8.85691 125.178 4.53091 135.125 7.61591 141.576C9.26991 145.033 13.5259 144.413 16.3959 142.73ZM165.695 143.827C155.693 143.238 141.659 143.359 130.103 143.459C127.354 143.483 124.745 143.506 122.365 143.517C109.945 143.566 97.5145 143.566 85.0845 143.707C79.1745 143.776 73.2545 143.927 67.3345 144.047C67.0063 144.053 66.6739 144.057 66.339 144.061C62.2967 144.105 57.8968 144.154 56.2345 148.577C55.087 151.652 55.8041 155.724 56.3962 159.087C56.48 159.563 56.5613 160.024 56.6345 160.467C57.4045 165.147 58.7945 169.657 60.6945 174.007C64.2145 182.077 69.6145 189.327 76.7445 194.557C93.1545 206.607 117.455 205.387 135.855 198.937C155.685 191.987 173.645 174.047 171.275 151.557C171.025 149.137 169.265 144.037 165.695 143.827ZM122.815 164.044C108.135 164.714 83.2745 163.571 80.3345 162.407C77.3945 161.242 74.6615 154.534 75.7145 151.276C77.2345 151.316 78.7345 151.347 80.1645 151.316C89.6645 151.106 151.165 150.667 156.735 150.066C157.685 149.967 158.791 152.319 158.791 154.923C158.791 157.526 132.825 163.594 122.815 164.044Z" transform="translate(46.00008 52.00027)" fill="#000000" fill-rule="evenodd" stroke="none"/>
        </g>
      </g>
      <g transform="translate(123 338)"/>
      <g transform="translate(47 241)">
        <g>
          <path d="M400.241 22.4717C406.555 19.4817 413.812 19.6607 420.603 20.5487C434.349 26.9267 404.861 34.3147 401.349 27.5287C404.801 52.9717 394.935 94.8897 366.724 108.133C334.13 124.07 298.773 99.8287 300.056 60.9787C293.067 59.2817 297.925 39.7137 300.739 31.7647C288.447 29.8527 276.738 28.7257 264.894 32.4797C271.42 50.8857 248.187 106.288 225.854 117.325C208.541 129.283 169.496 123.951 153.944 105.365C142.844 91.1707 137.3 58.2287 143.442 35.3387C143.388 35.3147 143.332 35.2967 143.279 35.2697C142.912 38.8697 118.056 38.4687 119.298 32.3037C83.5946 32.9447 49.0266 38.4207 13.6856 42.2807C9.41771 42.6777 9.20869 45.7037 9.00443 48.6607C8.82951 51.1931 8.65807 53.675 5.94363 54.4117C-4.52237 54.6617 0.226628 36.3637 9.44663 34.6657C18.2509 33.7459 27.1162 32.5506 36.011 31.3514C64.1217 27.5615 92.5269 23.7319 120.232 28.4287C124.112 23.4993 131.1 25.2524 136.795 26.6809C138.398 27.083 139.898 27.4593 141.198 27.6537C145.902 -0.109269 221.595 1.54173 246.677 12.8057C273.452 9.72473 301.309 7.96173 327.861 5.72573C344.673 0.333732 364.25 -2.44827 381.745 2.80973C384.166 2.67632 384.439 3.06209 384.978 3.82285C385.074 3.95736 385.177 4.10358 385.303 4.26073C392.194 7.30073 398.297 14.2087 400.241 22.4717ZM391.09 53.2827C381.556 117.772 315.002 124.904 303.177 60.8817C305.075 60.0507 306.44 58.4147 306.155 55.2387C306.088 41.2867 310.419 26.5407 323.005 18.7817C336.011 10.7757 351.232 9.98173 366.283 10.1837C395.005 9.49973 394.401 33.5067 391.09 53.2827ZM264.265 30.6657C272.34 25.1737 283.744 24.8557 292.758 25.2357C295.861 25.4177 300.059 25.2717 302.99 26.8347C306.149 20.6497 311.009 15.2997 316.233 11.7387C313.192 11.9693 310.141 12.2092 307.085 12.4496C288.207 13.9342 269.092 15.4374 250.449 14.8917C256.277 18.3047 262.045 24.6877 264.265 30.6657ZM253.026 60.1197C228.031 146.156 165.64 108.656 158.838 97.6297C146.569 79.3837 144.261 35.0297 154.948 23.1707C167.469 14.393 184.251 14.6491 199.84 14.8869C203.297 14.9396 206.695 14.9915 209.975 14.9437C243.176 15.3917 266.756 25.3237 253.026 60.1197Z" transform="translate(-1.999528 9.999668)" fill="#000000" fill-rule="evenodd" stroke="none"/>
        </g>
      </g>
    </g>
  </g>
</svg>