<?xml version="1.0" standalone="no"?>
<svg viewBox="-350 -150 1500 1500" style="width: 390px; height: 390px; justify-content: center; align-self: center; transform: scale(-1, 1);" xmlns="http://www.w3.org/2000/svg"><g transform="rotate(0 422.47546577453613 625.0122299194336)"><g id="body_Turtleneck" data-name="body/Turtleneck" transform="translate(0 459)"><path id="_Skin" data-name="âœ‹ Skin" d="M56.569,118.7c49.785-10.965,79.313-10.965,96.021-27.952s19.74-46.146,26.671-68.66C183.081,9.687,220.5-1.581,256.792.183c29.577,1.438,59.386,13.927,61.689,21.909,5.128,17.777,13.374,93.874,40.492,105.565s85.011,1.033,101.563,28.952,70.911,141.732,70.911,168.252S0,343.271,0,343.271,6.784,129.669,56.569,118.7Z" transform="translate(210.243 -32)" fill="#FFFFFF"></path><path id="_Ink" data-name="ðŸ– Ink" d="M20.713,725.016h0A19.994,19.994,0,0,1,8.176,721.03a18.493,18.493,0,0,1-4.919-5.521A21.859,21.859,0,0,1,.82,708.985c-.981-4.594-.86-9.6-.742-14.449l0-.2q.011-.476.023-.951.173-7.725.346-15.451Q.623,670.245.8,662.55c.393-17.483.681-35.287.96-52.5v-.008c.516-31.9,1.049-64.89,2.276-97.3,1.376-36.368,3.5-68.1,6.485-97,2.123-20.514,4.6-38.9,7.569-56.2a557.208,557.208,0,0,1,12.293-55.586c2.591-9.31,5.441-18.426,8.472-27.095,3.173-9.076,6.644-17.952,10.318-26.38,3.828-8.784,8-17.356,12.385-25.478,4.558-8.433,9.495-16.638,14.674-24.389a326.082,326.082,0,0,1,65.98-71.85,363.189,363.189,0,0,1,40.029-28.168A380.251,380.251,0,0,1,225.616,77.93a424.045,424.045,0,0,1,47.039-17.69c7.92-2.43,16.093-4.386,24-6.279l.008,0c6.732-1.612,13.692-3.278,20.465-5.229,7.224-2.08,12-3.632,17.389-7.639-.019.013-.02.013-.021.013s.159-.141.416-.357c.341-.286.8-.673.946-.816.47-.45.9-.875,1.328-1.3.448-.468.7-.73.841-.869.387-.54.744-1.134,1.058-1.657,1.412-2.379,1.962-4.865,2.723-8.306l.018-.082q.079-.356.161-.725a46.468,46.468,0,0,1,2.126-7.48,18.586,18.586,0,0,1,4.264-6.46,25.574,25.574,0,0,1,8.8-5.8,11.686,11.686,0,0,1,4.527-.878,13.294,13.294,0,0,1,3.441.457A14.76,14.76,0,0,1,371.336.01a.131.131,0,0,1,.049-.01.1.1,0,0,1,.081.04c1.981,3.269,2.029,6.29,2.085,9.789v.015c.007.439.014.894.025,1.356.047,2.308.107,4.782.22,7.24,6.213,4.251,14.567,5.708,21.938,6.995,1.025.179,1.992.348,2.962.525,15.552,2.844,27.568,4.617,38.96,5.75,9.791.986,19.915,1.485,30.091,1.485,3.389,0,6.847-.056,10.279-.165,6.558-.209,13.19-.643,19.71-1.29,1.78-.177,3.712-.525,5.756-.894a56.038,56.038,0,0,1,9.647-1.179,18.054,18.054,0,0,1,3.4.292h.01l.1-.044c.273-.123.555-.251.824-.376a22.435,22.435,0,0,1-.7-2.41,18.061,18.061,0,0,1-.092-7.344c.419-1.989,1.443-4.627,3.943-5.9a4.185,4.185,0,0,1,1.905-.486,4.3,4.3,0,0,1,2.754,1.086,13.484,13.484,0,0,1,3.071,4.584,25.012,25.012,0,0,0,1.4,2.586,16.412,16.412,0,0,0,2.11,2.489c2.331-.7,4.676-1.314,6.971-1.82a9.72,9.72,0,0,1,2.093-.236,8.714,8.714,0,0,1,7.247,4.036c4.425,6.262,7.545,14.511,9.82,25.96.137.689.274,1.4.406,2.088l0,.008a72.216,72.216,0,0,0,2.378,9.853,22.154,22.154,0,0,0,5.035,8.581,9.782,9.782,0,0,1,3.041,6.921,10.176,10.176,0,0,1-2.381,6.359,219.305,219.305,0,0,1,35.246,4.581,194.1,194.1,0,0,1,33.813,10.439,97.445,97.445,0,0,1,17.936,9.812,102.962,102.962,0,0,1,15.4,13.1,110.988,110.988,0,0,1,12.672,15.813,118.7,118.7,0,0,1,9.752,17.941,241.8,241.8,0,0,1,10.984,31.464c3.018,10.71,5.589,21.743,8.076,32.414,1.012,4.342,2.058,8.831,3.119,13.232,3.128,12.956,6.457,26.093,9.677,38.8l0,.016c4.14,16.337,8.422,33.23,12.319,49.917q9.567,40.92,19.131,81.841l.48,2.053.059.251c6.971,29.825,14.179,60.665,21.271,91,4.016,17.2,8.233,35.245,11.622,49.746l.293,1.252q4.5,19.273,9.005,38.542c1.674,7.153,3.365,14.39,5,21.39s3.329,14.248,5.01,21.43l2.73,11.68,2.73,11.68c.4,1.729.894,3.5,1.412,5.379l0,.006c1.423,5.154,2.9,10.482,2.726,15.435-.246,7.1-3.6,12-10.266,14.992-5.774,2.59-13.131,3.356-19.622,4.032-2.033.212-3.953.412-5.743.657-3.992.547-8.064,1.158-12,1.749l-.014,0c-10.11,1.517-20.563,3.086-30.865,3.768-1.9.126-3.786.19-5.615.19-11.953,0-22.247-2.678-30.6-7.959l-.3,1.874q-.347,2.183-.694,4.365a21.189,21.189,0,0,1-1.29,8.2,12.557,12.557,0,0,1-4.426,6.329,11.7,11.7,0,0,1-10.273,2.021,11.283,11.283,0,0,1-4.512-2.38h-.009a42.79,42.79,0,0,1-8.55.99c-9.357.262-18.859.489-28.048.709l-.892.021q-8.128.2-16.256.392c-13.643.328-27.75.668-41.643,1.028-82.661,2.146-146.092,3.219-205.671,3.479l-1.684.007H377.9c-16.878.073-34.331.149-51.5.149-18.887,0-35.439-.094-50.6-.286-19.976-.259-36.156-.615-50.919-1.121-9.223-.319-17.543-.662-25.97-1.63-1.15-.133-2.312-.233-3.542-.339h-.013c-4.435-.381-9.021-.775-12.725-2.76a6.445,6.445,0,0,1-3.857,1.334,4.825,4.825,0,0,1-4.873-4.044q-3-13.166-6.007-26.319l-1.973-8.642-1.027,2.336-.009.02c-1.274,2.9-2.592,5.9-3.895,8.835l-.263.594c-1.88,4.246-3.823,8.637-5.467,13.036-1.23,3.325-2.9,7.122-6,10.08-3.47,3.308-7.909,4.849-13.97,4.85a77.806,77.806,0,0,1-10.719-1.014c-1.934-.273-3.76-.531-5.551-.706-7.381-.719-14.793-1.083-22.033-1.083a203.108,203.108,0,0,0-33.666,2.743,229.393,229.393,0,0,0-28.721,6.84A48.893,48.893,0,0,1,20.713,725.016Zm3.072-21.576a.542.542,0,0,0,.344.409.028.028,0,0,0,.031-.018C24.175,703.784,24.086,703.654,23.785,703.44ZM20.4,701.019c-.022,0-.027.01-.027.018a.793.793,0,0,0,.628.323l-.031-.021c-.052-.035-.1-.067-.139-.1C20.539,701.04,20.435,701.019,20.4,701.019Z" transform="translate(14 1)"></path></g><g transform="translate(225 0)"><g><g><path id="_Skin" data-name="âœ‹ Skin" d="M340.529,155c-2.153-18.915.633-58.451.82-60.853,1.18-15.185-5.935-75.148-19.385-69.623C299.4,6.666,269.351,2.722,241.251.838,182.883-3.076,120.791,5.909,75.72,45.189c-22.289,20.4-43.988,50.068-42.244,80.96C13.226,155.431-15.324,195.6,9.908,229.831c8.577,10.937,22.208,15.01,32.982,23.293,21.672,17.48,35.268,42.566,57.145,59.942,57.96,52.083,156.377,62.963,213.323,3.723,44.035-42.9,36.915-107.09,29.169-161.786C337.321,118.23,344.728,191.9,340.529,155Z" transform="translate(65.001 149)" fill="#FFFFFF"></path><path id="_Ink" data-name="ðŸ– Ink" d="M250.311,443.271a134.042,134.042,0,0,1-19.031-1.4,105.442,105.442,0,0,1-21.491-5.2,40.754,40.754,0,0,1-10.072-5.32,45.226,45.226,0,0,1-8.2-7.871,6.294,6.294,0,0,1-.675-6.317,3.866,3.866,0,0,1,3.632-2.362,5.178,5.178,0,0,1,.623.039,118.17,118.17,0,0,1,21.024,4.124l1,.317a104.128,104.128,0,0,0,21.541,4.62c3.694.358,7.44.539,11.135.539a110.436,110.436,0,0,0,33.375-5.089,96.9,96.9,0,0,0,16.843-7.179,103.553,103.553,0,0,0,15.255-10.132,108.268,108.268,0,0,0,24.252-27.3c7.019-11.267,11.672-24.011,14.225-38.96,2.453-14.362,2.683-29.15,2.584-41.72-.228-29.893-1.2-61.166-2.89-92.951l-.28-5.159c-.715-13.089-1.64-30.351-2.449-47.81-.269-5.848-.654-10.624-1.211-15.03a39.576,39.576,0,0,1-14.309-13.79,141.029,141.029,0,0,1-20.441,6.43,122.385,122.385,0,0,1-29.191,3.585,115.192,115.192,0,0,1-17.182-1.283c-4.14,1.71-8.423,3.236-12.73,4.536-1.2.53-2.372,1.042-3.5,1.523a212.419,212.419,0,0,1-31.93,10.98l-2.7.673a110.358,110.358,0,0,1-18.2,3.267,26.538,26.538,0,0,1-3.291,1.01,53.5,53.5,0,0,1-12.614,1.5c-1.507,0-3.032-.064-4.535-.189a8.47,8.47,0,0,1-6.809-4.393,6.954,6.954,0,0,1-.8-3.361,7.468,7.468,0,0,1,1.063-3.656c2.223-3.814,4.515-7.7,6.81-11.55a214.565,214.565,0,0,1-24.5,8.419c-7.393,2.082-15.461,4.046-25.391,6.18-2.254.481-4.55.941-6.77,1.387l-.008,0-.008,0c-2.255.453-4.587.921-6.873,1.409-.724.154-1.531.291-2.386.436-3.024.512-6.445,1.092-8.505,2.754-2.272,1.824-3.263,5.465-4.138,8.678-.248.912-.483,1.774-.732,2.532-1.555,4.676-2.889,9.014-4.08,13.26A275.4,275.4,0,0,0,89.65,200.5a259.542,259.542,0,0,0-3.231,27.6c-.243,3.81-.343,7.693-.44,11.448-.138,5.351-.281,10.884-.839,16.292a6.422,6.422,0,0,1-1.929,4.023,5.5,5.5,0,0,1-3.775,1.528,5.9,5.9,0,0,1-3.916-1.571c-.437-.385-.9-.8-1.364-1.213l-.676-.617a68.99,68.99,0,0,1-9.169-9.76c-.47-.646-.931-1.335-1.371-2.05a.328.328,0,0,1-.2-.069l-.734-.553c-7.713-5.742-14.351-8.653-19.73-8.653a11.913,11.913,0,0,0-9.756,4.785c-2.571,3.258-3.86,7.467-4.867,11.156l-1.874,7a121.649,121.649,0,0,0-3.02,13.849,53.032,53.032,0,0,0-.04,16.26,29.684,29.684,0,0,0,6.5,14.7,18.387,18.387,0,0,0,11.279,6.39,14.147,14.147,0,0,0,1.947.126,34.415,34.415,0,0,0,4.475-.394l.027,0q.456-.06.913-.119a15,15,0,0,1,1.871-.106c.661,0,1.33.031,1.976.061h.005c.651.03,1.324.061,1.991.061.562,0,1.064-.022,1.537-.067.153-.015.305-.023.453-.023a3.964,3.964,0,0,1,3.448,1.984,5.721,5.721,0,0,1,.308,5.369,18.167,18.167,0,0,1-2.81,4.15,32.426,32.426,0,0,1,2.471,2.38,12.33,12.33,0,0,1,6.009,4.49,10.188,10.188,0,0,1,2.04,5.56c.127.446.245.923.37,1.5l2.146,3.481c.526.852.988,1.59,1.414,2.258A108.707,108.707,0,0,0,90.14,364.5c2.683,2.443,5.5,4.83,8.219,7.139a183.861,183.861,0,0,1,13.711,12.452l.8.841a52.5,52.5,0,0,1,8.591,11.12c2.445,4.623,3.088,9.006,1.966,13.4a4.689,4.689,0,0,1-4.367,3.27,3.4,3.4,0,0,1-2.043-.66c-4.383-3.253-7.526-7.73-10.565-12.06a76.126,76.126,0,0,0-6.675-8.6c-3.244-3.446-6.722-6.77-10.086-9.984l0,0c-3.272-3.126-6.655-6.359-9.821-9.7A78.044,78.044,0,0,1,65.4,350.085a11.648,11.648,0,0,1-8.016,3.277,10.979,10.979,0,0,1-6.052-1.861,12.382,12.382,0,0,1-4.223-4.766,37.879,37.879,0,0,1-4.271,1.62,8.617,8.617,0,0,1-2.517.393,7.433,7.433,0,0,1-6.3-3.59,9.713,9.713,0,0,1-1.478-4.405,9.444,9.444,0,0,1,.8-4.738,30.273,30.273,0,0,1,5.809-8.68,36.826,36.826,0,0,1-19.821-9.63,40.67,40.67,0,0,1-11.188-21.54,60.016,60.016,0,0,1-1.1-12.283A77.3,77.3,0,0,1,8.19,271.595a121.654,121.654,0,0,1,7.25-25.11c.627-1.532,1.231-2.9,1.849-4.171a1.3,1.3,0,0,1-.99-.48c-.755-1.031-1.576-2.011-2.37-2.958a28.945,28.945,0,0,1-4.17-5.911c-.332-.682-.678-1.378-1.013-2.051a76.048,76.048,0,0,1-3.366-7.419c-2.615-7.059-3.752-14.963-4.45-21.06a158.58,158.58,0,0,1,1.18-42.75,170.791,170.791,0,0,1,9.426-35.324A173.628,173.628,0,0,1,28.118,91.949a11.606,11.606,0,0,1-2.06-1.38l-.319-.278-.518-.468a8.553,8.553,0,0,1-2.716-6.22,9.838,9.838,0,0,1,2.716-7.1l1.093-1.1a28.988,28.988,0,0,1,4.812-3.961c.323-.217.662-.426,1.008-.623a9.567,9.567,0,0,1-.76-7.479,9.927,9.927,0,0,1,5-6.127,17.589,17.589,0,0,1,8.3-1.832,29.707,29.707,0,0,1,12.379,2.823A160.043,160.043,0,0,1,89.509,35.715,310.548,310.548,0,0,1,133.8,17.02a382.367,382.367,0,0,1,46.481-12.4A211.134,211.134,0,0,1,222.145,0c1.919,0,3.842.035,5.715.1l1.229.048a140.719,140.719,0,0,1,19.4,1.822c7.586,1.375,13.556,3.564,18.249,6.693a2.286,2.286,0,0,1,1.6-.688,1.954,1.954,0,0,1,.849.193c11.52,5.5,24.119,9.59,36.3,13.548l2.9.942A177.356,177.356,0,0,0,348.6,30.835a8.341,8.341,0,0,1,3.992,1.438,8.081,8.081,0,0,1,2.732,3.1,6.289,6.289,0,0,1-.441,6.414c-.8,1.227-1.569,2.449-2.279,3.586l1.134-.119h.006c.861-.091,1.752-.185,2.627-.273.18-.018.364-.027.547-.027a7.369,7.369,0,0,1,5.222,2.5A7.73,7.73,0,0,1,364.386,53a74.571,74.571,0,0,1-.83,7.5h.03l.258,0a11.147,11.147,0,0,1,4.363.845c3.408,1.44,5.489,4.14,6.361,8.256.731,3.449.494,7.342.19,11.035-.869,10.526-4.908,20.378-11.082,27.031a42.951,42.951,0,0,1,6.4,8.552,46.562,46.562,0,0,1,4.236,10.179,48.059,48.059,0,0,1,1.96,16.681l-.134,1.673c-.546,6.379-1.641,12.871-5.917,17.147a9.3,9.3,0,0,1-6.693,2.856c-.31,0-.626-.016-.937-.046,1.6,14.077,2.642,28.492,3.57,42.05l.451,6.7c1.244,18.817,2.078,34.286,2.625,48.682.67,17.642.9,33.579.7,48.722a208.31,208.31,0,0,1-1.452,22.5,155.263,155.263,0,0,1-4.208,21.8,124.627,124.627,0,0,1-7.62,20.734,111.491,111.491,0,0,1-11.689,19.3,125.614,125.614,0,0,1-14.016,15.635,123.478,123.478,0,0,1-16.39,13.019,119.108,119.108,0,0,1-18.372,9.994A114.071,114.071,0,0,1,276.23,440.4,116.407,116.407,0,0,1,250.311,443.271ZM63,290.8l-.165,0a10.766,10.766,0,0,1-6.9-2.776,34.718,34.718,0,0,1-5-5.842c-.505-.685-1.027-1.392-1.553-2.072a6.867,6.867,0,0,1-1.67,2.04l-.46.36a8.407,8.407,0,0,1-5.027,2.036c-.092,0-.184,0-.273-.006a9.849,9.849,0,0,1-4.12-1.111,7.465,7.465,0,0,1-3.4-3.97,8.549,8.549,0,0,1,3.056-10.16l-.6-.413a12.088,12.088,0,0,1-3.389-3.245l-.207-.331h.08a3.241,3.241,0,0,1,1.861-4.78,9.719,9.719,0,0,1,3.016-.448c4.238,0,8.953,2.193,12.743,3.954.38.177.772.359,1.152.533,6.036,2.77,11.242,6.957,15.97,11.07,2.147,1.874,3,5.1,2.28,8.63l-.036.178c-.048.242-.1.491-.155.742a6.838,6.838,0,0,1-2.672,3.981A7.7,7.7,0,0,1,63,290.8Z" transform="translate(48 65.001)"></path></g></g><g transform="translate(159 186)"><g><path d="M140.63 0.473197L139.193 0.179116C137.503 -0.15929 135.804 -0.0161244 134.311 0.591153C132.847 1.18684 131.572 2.2242 130.68 3.72083C129.495 5.71373 129.337 7.38618 129.887 9.59525C130.311 11.3022 131.242 12.5864 132.46 13.5139C133.744 14.4911 135.37 15.0612 137.06 15.2595C144.854 16.175 152.53 17.8896 159.992 20.3235C163.488 21.4643 166.788 23.0096 170.058 24.6132L172.877 26.002C175.477 27.2735 178.163 28.499 181.557 29.3885C181.824 29.4584 182.087 29.5243 182.349 29.5865C183.29 29.2909 183.45 28.9329 183.649 28.6733L183.73 28.5721C183.972 28.2679 184.271 27.8025 183.988 25.6306C176.583 10.2711 156.267 3.74181 140.63 0.473197ZM43.5878 4.83023L45.4652 4.50163C51.273 3.49719 58.4944 2.53203 62.6028 7.20123C64.7819 9.67723 65.5318 14.2792 62.6028 16.6492C58.7671 19.7539 54.6298 19.6513 50.2182 19.5419C48.7043 19.5044 47.1582 19.466 45.5808 19.5562C40.4928 19.8482 35.6028 20.6902 30.7018 22.0912C19.9498 25.1642 11.1888 30.7742 2.00585 36.9342C0.800849 37.7422 -0.429151 36.2012 0.145849 35.0742C5.44685 24.6912 15.7198 16.1622 26.0098 10.9632C31.5019 8.18823 37.5118 5.88623 43.5878 4.83023ZM29.9632 50.1461C30.7976 39.7899 46.5702 37.4381 48.1392 47.6861C49.5442 56.8661 47.8902 65.2991 43.7552 73.5641C39.8042 81.4601 29.8737 77.7763 29.1227 70.5863C28.3809 63.4843 28.9069 59.2482 29.4428 54.933C29.6341 53.3921 29.8267 51.8412 29.9632 50.1461ZM159.205 41.8262C155.401 40.7152 152.226 42.6812 150.027 45.5612C149.773 45.8932 149.566 46.2222 149.38 46.5482C142.515 52.8562 145.101 65.6452 150.501 72.0492C153.814 75.9762 161.145 74.8452 163.413 70.3852C167.587 62.1722 171.09 45.2992 159.205 41.8262ZM128.748 119.039C136.872 107.66 125.366 96.9569 117.814 92.3669C115.836 90.9469 117.406 86.2431 121.634 86.9701C160.031 93.5671 140.136 159.708 91.112 123.413C85.2754 118.704 92.3434 108.334 98.6342 112.366C98.9532 112.611 99.2876 112.869 99.6364 113.139C106.704 118.603 119.636 128.601 128.748 119.039ZM93.5865 188.926C86.8642 186.184 80.8663 181.61 76.4812 175.766C74.9566 173.735 74.5614 171.589 74.8812 169.627C75.2408 167.421 76.546 165.422 78.326 164.08C80.1115 162.735 82.345 162.072 84.5043 162.41C86.3806 162.704 88.2484 163.731 89.7265 165.862L90.0354 166.288C92.6424 169.815 96.0396 172.708 99.9104 174.574C103.641 176.372 107.814 177.211 112.132 176.723C120.356 175.794 126.024 171.346 132.049 165.306C132.796 164.544 133.543 163.757 134.294 162.958C134.768 162.234 135.426 161.768 136.157 161.524C136.968 161.253 137.886 161.268 138.726 161.562C139.537 161.845 140.262 162.381 140.747 163.094C141.209 163.772 141.471 164.61 141.386 165.574C140.835 171.833 137.562 177.419 132.914 181.805C127.752 186.677 120.909 190.047 114.466 191.229C107.368 192.531 100.136 191.598 93.5865 188.926Z" transform="translate(53.00005 52.00027)" fill="#000000" fill-rule="evenodd" stroke="none"></path></g></g><g transform="translate(123 338)"></g><g transform="translate(47 241)"><g><path d="M400.241 22.4717C406.555 19.4817 413.812 19.6607 420.603 20.5487C434.349 26.9267 404.861 34.3147 401.349 27.5287C404.801 52.9717 394.935 94.8897 366.724 108.133C334.13 124.07 298.773 99.8287 300.056 60.9787C293.067 59.2817 297.925 39.7137 300.739 31.7647C288.447 29.8527 276.738 28.7257 264.894 32.4797C271.42 50.8857 248.187 106.288 225.854 117.325C208.541 129.283 169.496 123.951 153.944 105.365C142.844 91.1707 137.3 58.2287 143.442 35.3387C143.388 35.3147 143.332 35.2967 143.279 35.2697C142.912 38.8697 118.056 38.4687 119.298 32.3037C83.5946 32.9447 49.0266 38.4207 13.6856 42.2807C9.41771 42.6777 9.20869 45.7037 9.00443 48.6607C8.82951 51.1931 8.65807 53.675 5.94363 54.4117C-4.52237 54.6617 0.226628 36.3637 9.44663 34.6657C18.2509 33.7459 27.1162 32.5506 36.011 31.3514C64.1217 27.5615 92.5269 23.7319 120.232 28.4287C124.112 23.4993 131.1 25.2524 136.795 26.6809C138.398 27.083 139.898 27.4593 141.198 27.6537C145.902 -0.109269 221.595 1.54173 246.677 12.8057C273.452 9.72473 301.309 7.96173 327.861 5.72573C344.673 0.333732 364.25 -2.44827 381.745 2.80973C384.166 2.67632 384.439 3.06209 384.978 3.82285C385.074 3.95736 385.177 4.10358 385.303 4.26073C392.194 7.30073 398.297 14.2087 400.241 22.4717ZM391.09 53.2827C381.556 117.772 315.002 124.904 303.177 60.8817C305.075 60.0507 306.44 58.4147 306.155 55.2387C306.088 41.2867 310.419 26.5407 323.005 18.7817C336.011 10.7757 351.232 9.98173 366.283 10.1837C395.005 9.49973 394.401 33.5067 391.09 53.2827ZM264.265 30.6657C272.34 25.1737 283.744 24.8557 292.758 25.2357C295.861 25.4177 300.059 25.2717 302.99 26.8347C306.149 20.6497 311.009 15.2997 316.233 11.7387C313.192 11.9693 310.141 12.2092 307.085 12.4496C288.207 13.9342 269.092 15.4374 250.449 14.8917C256.277 18.3047 262.045 24.6877 264.265 30.6657ZM253.026 60.1197C228.031 146.156 165.64 108.656 158.838 97.6297C146.569 79.3837 144.261 35.0297 154.948 23.1707C167.469 14.393 184.251 14.6491 199.84 14.8869C203.297 14.9396 206.695 14.9915 209.975 14.9437C243.176 15.3917 266.756 25.3237 253.026 60.1197Z" transform="translate(-1.999528 9.999668)" fill="#000000" fill-rule="evenodd" stroke="none"></path></g></g></g></g></svg>